# xmcd
# Track frame offsets:
# 150
# 14196
# 29333
# 41083
# 54804
# 65960
# 76470
# 88367
# 104876
# 120675
# 139944
# 151455
# 164298
# 175726
# 192797
#
# Disc length: 2732 seconds
# Revision: 0
# Processed by: cddbd v1.5.1PL0 Copyright (c) Steve Scherf et al.
# Submitted via: VisiTrax 2.9.10.228 - For more info visit www.synapsa.com
#
DISCID=da0aaa0f
DTITLE=Statler Brothers, The - CB90135
DYEAR=1900
DGENRE=Karaoke
TTITLE0=I'll Go To My Grave Loving You
TTITLE1=Movies, The
TTITLE2=Flowers On The Wall
TTITLE3=Do You Remember These
TTITLE4=Do You Know You Are My Sunshine
TTITLE5=Who Am I To Say
TTITLE6=Oh Baby Mine (I Get So Lonely)
TTITLE7=Elizabeth
TTITLE8=My Only Love
TTITLE9=Too Much Of My Heart
TTITLE10=You Can't Have Your Kate and Edith, Too
TTITLE11=Class Of '57, The
TTITLE12=Thank God I've Got You
TTITLE13=How To Be A Country Star
TTITLE14=Bed Of Roses
EXTD=
EXTT0=
EXTT1=
EXTT2=
EXTT3=
EXTT4=
EXTT5=
EXTT6=
EXTT7=
EXTT8=
EXTT9=
EXTT10=
EXTT11=
EXTT12=
EXTT13=
EXTT14=
PLAYORDER=
